#!OML:ASF E:/inclinewalkrobotboard/Project1/Captureday1/Session1/subject1.ASF
:FULLY-SPECIFIED
:DEGREES
63
root 0 0 0 1.9280644786697738 -10.492953810029773 1.0141413234192307
lowerback 0.17751383869695014 -1.7662442287290787 -2.64448382044234
upperback -0.27155612299868626 -2.2985045336004486 2.003018081990427
thorax -0.24147197856652536 -1.1616037356699682 3.492730983915051
lowerneck -26.865754761340792 -1.8085917345046167 -7.488215447076308
upperneck 22.56076003695207 0.05764184506153558 2.420630643672215
head 11.96911991907589 -0.4323496584726786 2.2569613153494834
rclavicle 3.8056102939082866E-15 -1.9374653163015676E-15
rhumerus -34.45974841531412 -4.249735844627486 -77.90039074076067
rradius 28.43020812150276
rwrist 20.77261364413212
rhand -17.52171659081836 8.854583576117484
rfingers 7.125019999999955
rthumb 8.726369917035637 -20.944620853897476
lclavicle -4.1795598860673776E-16 7.755966667202865E-16
lhumerus -23.07449967726131 -8.094097370676568 91.44282355581456
lradius 64.52209654058647
lwrist 4.619229035883544
lhand -27.13944614174894 23.116617051554154
lfingers 7.125019999999986
lthumb -0.5821486725817167 53.22497948334271
rfemur -35.344294212049384 5.095294528532422 23.466117555303903
rtibia 23.585878314642716
rfoot -4.747761171801784 -10.386965179542202
rtoes 5.817970007774006
lfemur 8.969535599222635 -1.9375426064989976 -20.811421698509665
ltibia 42.8195710739294
lfoot 6.461720087834703 -16.32171731864142
ltoes -15.515590239437712
64
root 0 0 0 1.8423594294896255 -10.305587570654769 0.9535092771802323
lowerback 0.30261140511875584 -1.6827805950001438 -2.6182501776683638
upperback -0.3563938466677718 -2.1803858833666947 2.04327852845801
thorax -0.4142884622283072 -1.1015360650970925 3.5207605498097228
lowerneck -26.416181204687692 -1.7762251779109661 -7.396190891283845
upperneck 22.41315618753223 0.05614270998983362 2.4278801603161457
head 11.862005930429333 -0.43348055731239 2.249448103712784
rclavicle 3.0330862055197186E-15 -1.5021580621542832E-15
rhumerus -34.45496640595521 -4.871312632081808 -78.06149760345382
rradius 28.45698336930002
rwrist 20.844019225707456
rhand -17.392123015947853 8.832371146086654
rfingers 7.125019999999953
rthumb 8.852860665128759 -20.94283305272565
lclavicle -1.2180303145568374E-15 1.2166797263304438E-15
lhumerus -23.443886640328202 -6.701218534412522 91.87181670717345
lradius 63.671204545362144
lwrist 4.133459116961821
lhand -27.254773008436118 22.362737778680824
lfingers 7.125019999999995
lthumb -0.6963123731623408 52.452430320153624
rfemur -25.369923110701947 6.151052833517325 31.43083564338423
rtibia 23.91711475368411
rfoot -4.868538378618236 -8.985595419913174
rtoes 11.49888938681974
lfemur -1.5586952964107184 -0.8433113502165726 -17.624050617366123
ltibia 51.205989813542786
lfoot 11.222604319779498 -14.863022083003644
ltoes -9.106239414009377
65
root 0 0 0 1.8048340247394143 -10.228045580145695 0.9110649771609439
lowerback 0.3426122873229398 -1.640133183124341 -2.601419628872279
upperback -0.38893431801004325 -2.123900778223348 2.0301154052517827
thorax -0.4801605555654469 -1.0719201109518584 3.497330580528786
lowerneck -26.024275379902168 -1.7466960133285134 -7.379982090267979
upperneck 22.782403274487507 0.06248199525808584 2.393160017988696
head 11.935473832505265 -0.44537315173969994 2.242266941234666
rclavicle 2.0448084067840276E-15 -1.254739267807564E-15
rhumerus -34.25654408930298 -5.251907675354003 -78.3914800040034
rradius 28.635071635018683
rwrist 20.747901136671082
rhand -17.312550387501563 8.859665073924765
rfingers 7.125019999999949
rthumb 8.930359251869088 -20.894540674561895
lclavicle -2.0814890713561604E-15 1.5353637435655064E-15
lhumerus -23.641479771604967 -5.427396628503849 92.30274340620551
lradius 63.03833292462275
lwrist 3.5224870307701366
lhand -27.546806917576813 21.771733325828833
lfingers 7.125020000000004
lthumb -0.9775304301305425 51.83484455619785
rfemur -17.778007424991188 7.302288560084143 35.3923480391055
rtibia 21.585257397876056
rfoot -11.02515131984424 -8.826813814088435
rtoes 12.700829514723818
lfemur -7.7131412907942964 0.26878329714697413 -15.128723838285257
ltibia 54.11281764550775
lfoot 9.121428416036347 -11.972483248531143
ltoes -9.598857071996779
66
root 0 0 0 1.7954133584805203 -10.215338804606723 0.8991311445699426
lowerback 0.3221773637385472 -1.6207208249444864 -2.6066080474444213
upperback -0.4155261971785274 -2.101180200256445 2.0133974119016655
thorax -0.5011612550062003 -1.0585090700026711 3.481360389727769
lowerneck -25.863335544585627 -1.7430773501537022 -7.393367099722766
upperneck 23.010287578336808 0.05116931637807243 2.3971146860345267
head 11.989329129755617 -0.4577174723223212 2.246857356584125
rclavicle 1.9124384024036622E-15 -9.744604006742648E-16
rhumerus -33.88620614649454 -5.394887612105714 -78.8928171300056
rradius 28.974538689823905
rwrist 20.514416998383613
rhand -17.28750383285447 8.910229540424238
rfingers 7.125019999999943
rthumb 8.955187345650032 -20.831981599957118
lclavicle -3.052715806033061E-15 1.946274523995665E-15
lhumerus -23.66320784083341 -4.8617138285944534 92.59327690735289
lradius 62.738673658863355
lwrist 3.07878577119779
lhand -27.84660010386238 21.38021322860312
lfingers 7.125020000000008
lthumb -1.266000091194801 51.42051337394344
rfemur -9.380341391562487 8.42145221286707 38.076852437818566
rtibia 17.89846112341035
rfoot -18.56172989057637 -8.968381754262218
rtoes 11.473439673938191
lfemur -14.425526560545618 1.8161080857689522 -13.230258812240708
ltibia 56.88816266486517
lfoot 4.230714453009986 -8.507423186892302
ltoes -10.438027510208496
67
root 0 0 0 1.7923936518180525 -10.22202159311375 0.8999643705357472
lowerback 0.2640166173152212 -1.6056107674824425 -2.6244059113448936
upperback -0.4506387261918556 -2.085380350306254 1.992001756451939
thorax -0.5086260929277345 -1.0474933457059792 3.4667608299046484
lowerneck -25.814018517855693 -1.7702645242823667 -7.423822523276263
upperneck 23.15506940138519 0.0010393260746190958 2.4398706332340727
head 12.031259531159392 -0.48242463187428275 2.260590528317982
rclavicle 2.9266618687568666E-15 -6.814867885285002E-16
rhumerus -33.28094649932 -5.237852668801388 -79.6253680703286
rradius 29.51715978046092
rwrist 20.079247371058806
rhand -17.350562707635028 9.017742109700558
rfingers 7.125019999999936
rthumb 8.894506626899702 -20.7174794775252
lclavicle -3.251948514128977E-15 2.504329092892835E-15
lhumerus -23.478385604879715 -4.47955946549812 92.70101027219374
lradius 62.62265244563486
lwrist 2.7466993446863333
lhand -28.095431346130084 21.159743076728653
lfingers 7.12502000000001
lthumb -1.507183724813153 51.18331319203336
rfemur -3.4937256179482192 8.875667201329815 39.0365968446564
rtibia 16.61756174644291
rfoot -22.723026181961586 -8.758469773897254
rtoes 9.524915500688424
lfemur -19.538465993818498 2.7643165395344775 -12.882156524145039
ltibia 58.397927445837674
lfoot 0.1517577328459776 -6.1811532891378
ltoes -9.02050304405646
68
root 0 0 0 1.7971590794773997 -10.2288973691465 0.9149376309074556
lowerback 0.16840884009670964 -1.588861055717292 -2.6530344954532663
upperback -0.49048654829330457 -2.0694208180436076 1.9512656764825649
thorax -0.5007133230800731 -1.0348504689097506 3.4362026784209903
lowerneck -25.85432101131813 -1.842249495391012 -7.472787477908447
upperneck 23.26623213979757 -0.11747782135409257 2.5381294578107094
head 12.07667468024526 -0.5311508017960045 2.2868324153231545
rclavicle 1.5028529602456316E-15 -6.193461473936187E-16
rhumerus -32.1001672387773 -4.250867495659754 -81.00578333748206
rradius 30.597974721445954
rwrist 19.248698425382823
rhand -17.649552431275286 9.197630653335425
rfingers 7.125019999999929
rthumb 8.604256153375914 -20.548780019704118
lclavicle -3.274826458639219E-15 2.7143476757610844E-15
lhumerus -22.929341386125387 -3.6249234588255703 92.58218306883617
lradius 62.368495795786444
lwrist 2.4047112133242967
lhand -28.31191262016946 20.962663293496085
lfingers 7.12502000000001
lthumb -1.7158654368708888 50.96939916047893
rfemur 1.6303980700524807 8.868220056380059 38.87058268747826
rtibia 18.357608267182645
rfoot -23.97256630170522 -8.367099673634673
rtoes 6.438462601689885
lfemur -24.159315493053214 2.673923196020633 -12.24599124390934
ltibia 55.85223186976249
lfoot -2.5955493865014967 -3.6366616441781865
ltoes -7.670411103150032
69
root 0 0 0 1.8054629801718136 -10.235499769002374 0.923898316946159
lowerback 0.11819489424513141 -1.5837172745285522 -2.6663238735064527
upperback -0.49981135158846157 -2.065807427370981 1.9263081270705278
thorax -0.48397241612826647 -1.0312193420389688 3.4149673463570194
lowerneck -25.887161719641405 -1.8857296326348405 -7.502070505721797
upperneck 23.347853365270787 -0.18650165396792262 2.5891154627885316
head 12.110060169550014 -0.5596764777397631 2.3004266234285318
rclavicle -2.256215149318095E-15 -7.504515439890502E-16
rhumerus -31.24210266537959 -2.830293507907799 -81.88802124697199
rradius 31.36368251266448
rwrist 18.6583917230875
rhand -18.005701935472036 9.281670364291992
rfingers 7.125019999999932
rthumb 8.259962136500144 -20.47952735685778
lclavicle -4.0872938576972845E-15 2.612023233055472E-15
lhumerus -22.59301973916366 -3.08138247206131 92.44576512844623
lradius 62.104561549853855
lwrist 2.3151486577577174
lhand -28.342376693813815 20.84555866422587
lfingers 7.125020000000009
lthumb -1.7475105180078039 50.846375076442285
rfemur 5.2339270924441355 8.772856218511944 38.601881527657056
rtibia 20.330695601242127
rfoot -24.147656198861625 -7.921083938199596
rtoes 4.055080702198456
lfemur -27.382672045273786 1.833342200179326 -11.47752352567119
ltibia 49.94031660070673
lfoot -3.9641322077855916 -1.4970704620413953
ltoes -6.536724362071688
